<svg id="favicon" xmlns="http://www.w3.org/2000/svg" viewBox="0 0 314.97 384" fill="#00c569"><path d="M-412.8,798c-6.42-2.84-8.78-7.79-8.32-14.69.39-5.85,0-11.74.12-17.61,0-2-.39-3-2.48-3.83C-440.63,755.36-451,740.54-451,723s10.39-32.27,27.63-38.86a3.13,3.13,0,0,0,2.4-3.5q-.12-16.12,0-32.23c0-1.93-.6-2.77-2.44-3.47C-440.65,638.3-451,623.57-451,606s10.41-32.35,27.58-38.9c1.85-.7,2.47-1.53,2.45-3.46q-.12-16.11,0-32.23a3.13,3.13,0,0,0-2.4-3.5c-17.41-6.7-27.68-21.37-27.63-39.24,0-17.29,10.58-32.14,27.55-38.54,2.09-.79,2.51-1.85,2.48-3.82-.11-6,.26-12-.12-18-.44-6.82,2.11-11.54,8.32-14.32h6c6.2,2.79,8.74,7.51,8.31,14.33-.37,6,0,12-.11,18,0,2,.38,3,2.48,3.82,16.94,6.32,27.5,21.2,27.55,38.53.05,17.89-10.27,32.66-27.61,39.24-1.87.71-2.44,1.58-2.43,3.49q.12,16.11,0,32.23c0,1.91.56,2.78,2.43,3.48,17.14,6.49,27.59,21.3,27.6,38.88s-10.44,32.41-27.57,38.91c-1.84.7-2.47,1.53-2.46,3.46q.14,16.13,0,32.23a3.1,3.1,0,0,0,2.38,3.51c17.19,6.53,27.63,21.3,27.64,38.86s-10.43,32.48-27.54,38.92c-2.1.79-2.52,1.85-2.48,3.82.1,5.87-.26,11.77.11,17.61.44,6.89-1.86,11.88-8.31,14.7Z" transform="translate(451.03 -413.99)"/><path d="M-230.18,534c-26.86,0-53.72-.06-80.58.06a13.73,13.73,0,0,1-11.13-5c-9.13-10.43-18.38-20.77-27.59-31.13-5.59-6.29-5.6-11.59,0-17.89,9.21-10.36,18.46-20.69,27.59-31.13A13.75,13.75,0,0,1-310.75,444q80.94.14,161.9.06c8.38,0,12.77,4.31,12.78,12.56q0,32.43,0,64.84c0,8.24-4.41,12.56-12.79,12.57Z" transform="translate(451.03 -413.99)"/><path d="M-230.22,651c-26.86,0-53.72-.06-80.57.06a13.74,13.74,0,0,1-11.13-5c-9.13-10.43-18.38-20.76-27.59-31.13-5.57-6.28-5.56-11.57.05-17.88,9.21-10.37,18.44-20.71,27.59-31.13A13.39,13.39,0,0,1-311.09,561q81.31.1,162.65,0c7.85,0,12.36,4.46,12.37,12.23q0,32.79,0,65.58c0,7.58-4.54,12.15-12.07,12.15Q-189.18,651-230.22,651Z" transform="translate(451.03 -413.99)"/><path d="M-229.39,678h80.57c8.37,0,12.75,4.33,12.75,12.6q0,32.42,0,64.83c0,8.09-4.41,12.53-12.45,12.54q-81.31,0-162.65,0a13,13,0,0,1-10.48-4.73c-9.33-10.59-18.74-21.12-28.1-31.68-5.24-5.92-5.23-11.37,0-17.32,9.28-10.47,18.62-20.88,27.83-31.41A13.7,13.7,0,0,1-310.72,678C-283.61,678.07-256.5,678-229.39,678Z" transform="translate(451.03 -413.99)"/></svg>