<svg id="favicon" xmlns="http://www.w3.org/2000/svg" viewBox="0 0 344.49 344.44" fill="#00c569"><path d="M-273.36,213.47c0,31.82.07,63.63,0,95.45-.09,36.23-24.1,66.49-59.42,74.71a78.28,78.28,0,0,1-17.4,2q-95.28.21-190.56.06c-43.35-.06-77-33.86-77-77.28q-.08-94.89,0-189.77c0-38.4,26.2-69.6,64-76.27a75.84,75.84,0,0,1,13-1q95.08-.09,190.18,0c38.4,0,69.62,26.28,76.19,64.05a81.45,81.45,0,0,1,1,13.79C-273.32,150.59-273.36,182-273.36,213.47Zm-233.7,83.8c-.67-2.19-1.05-3.49-1.47-4.76a32.17,32.17,0,0,0-37.81-21.09,32,32,0,0,0-24.46,35.65c2.07,14.82,14.18,26.5,28.68,27.66C-526.68,336-513,327-508.44,312.39c.77-2.46,1.62-3.66,4.56-4.09,27.61-4,47.27-18.7,58.63-44.22,4.05-9.12,5.61-18.8,5.69-28.77.13-15.21-.87-30.57.95-45.58,3.77-31,32.31-56.75,72.66-51.31,0,8.91,0,17.88,0,26.84,0,2.81.9,5.17,3.71,6.33s5.11.18,7.11-1.83q16.68-16.66,33.33-33.36c2.83-2.85,3-5.84.28-8.59-11.42-11.52-22.89-23-34.6-34.21-1.33-1.28-4.81-1.81-6.37-1A8.16,8.16,0,0,0-366,98.51c-.41,7.71-.16,15.46-.17,23.19v4.22c-4.34,0-8.19,0-12,0-41.09.07-73.27,32.25-73.38,73.4,0,12.47.07,24.94,0,37.42a60.44,60.44,0,0,1-38.27,55.78C-495.35,294.65-501.25,295.7-507.06,297.27Z" transform="translate(617.82 -41.27)"/></svg>